<svg width="118" height="89" viewBox="0 0 118 89" fill="none" xmlns="http://www.w3.org/2000/svg">
<path d="M116.75 69.6851V87.2261L116.423 87.3472C114.958 87.8871 113.14 88.1469 110.988 88.147C108.905 88.147 107.255 87.5633 106.136 86.314C105.026 85.0751 104.516 83.2666 104.516 80.98C104.516 78.8529 105.042 77.165 106.181 76.0122C107.321 74.8586 108.992 74.3257 111.097 74.3257C112.21 74.3257 113.333 74.4764 114.468 74.7739V69.6851H116.75ZM111.11 76.5464C109.615 76.5464 108.584 76.9287 107.923 77.6069C107.26 78.2876 106.883 79.3521 106.883 80.894C106.883 82.7041 107.267 83.9689 107.948 84.7759C108.614 85.5663 109.636 85.9995 111.11 85.9995C112.27 85.9995 113.388 85.8736 114.468 85.6274V77.0659C113.388 76.7205 112.269 76.5464 111.11 76.5464Z" fill="white" stroke="white"/>
<path d="M101.962 74.3257V88.147H99.6802V74.3257H101.962ZM102.084 69.6851V72.1509H99.5581V69.6851H102.084Z" fill="white" stroke="white"/>
<path d="M96.272 69.6851V88.147H93.9897V69.6851H96.272Z" fill="white" stroke="white"/>
<path d="M84.9651 74.2031C87.0485 74.2031 88.6997 74.7742 89.8215 75.999C90.9356 77.2155 91.4485 78.9921 91.4485 81.2363C91.4484 83.4767 90.9358 85.2504 89.8215 86.4648C88.6997 87.6874 87.0482 88.2568 84.9651 88.2568C82.8894 88.2568 81.2428 87.687 80.1213 86.4648C79.0076 85.2511 78.4901 83.4784 78.4817 81.2383V81.2363L78.4875 80.8203C78.548 78.7718 79.0644 77.1394 80.1086 75.999C81.2304 74.7742 82.8817 74.2031 84.9651 74.2031ZM84.9651 76.3018C83.4941 76.3018 82.4765 76.7206 81.8157 77.4775C81.1436 78.2475 80.7639 79.4543 80.7639 81.1875C80.764 82.9549 81.1444 84.1873 81.8186 84.9736C82.4803 85.7453 83.4969 86.1699 84.9651 86.1699C86.4333 86.1699 87.4499 85.7453 88.1116 84.9736C88.7858 84.1873 89.1662 82.955 89.1663 81.1875C89.1663 79.4543 88.7866 78.2475 88.1145 77.4775C87.4536 76.7205 86.4361 76.3018 84.9651 76.3018Z" fill="white" stroke="white"/>
<path d="M76.3064 72.6958L75.658 72.4946C73.8753 71.9401 72.033 71.6616 70.1287 71.6616C68.2146 71.6616 66.8661 71.9841 66.0095 72.5552C65.189 73.1024 64.7673 73.9132 64.7673 75.0698C64.7674 76.0339 65.0369 76.6708 65.4958 77.0767C65.9666 77.4929 66.7237 77.7446 67.8572 77.7446H71.447C73.1256 77.7446 74.4782 78.1132 75.4138 78.938C76.3614 79.7733 76.7956 80.999 76.7957 82.5181C76.7957 84.3838 76.1878 85.8598 74.9109 86.8511C73.6578 87.8237 71.8359 88.269 69.53 88.269C67.2874 88.269 65.2243 88.0213 63.3445 87.52L62.9734 87.4204V84.9849L63.6414 85.2222C65.4124 85.8518 67.3736 86.1704 69.53 86.1704C71.3087 86.1704 72.5517 85.8312 73.3406 85.2339C74.1032 84.6564 74.5134 83.7818 74.5134 82.5181C74.5134 81.5999 74.2485 80.9959 73.7966 80.6089C73.3297 80.2091 72.5759 79.9653 71.447 79.9653H67.8572C66.1681 79.9653 64.8076 79.5856 63.8679 78.7378C62.9186 77.8812 62.4852 76.6261 62.4851 75.0698C62.4851 73.2657 63.1387 71.8477 64.4841 70.9048C65.7971 69.9847 67.7046 69.563 70.1287 69.563C72.1245 69.563 74.0604 69.813 75.9353 70.313L76.3064 70.4116V72.6958Z" fill="white" stroke="white"/>
<path d="M45.6448 69.6851V75.1714C47.0108 74.6066 48.486 74.3257 50.0657 74.3257C51.6349 74.3257 52.9046 74.6429 53.7883 75.3628C54.6916 76.0986 55.1086 77.1845 55.1086 78.5249C55.1086 79.5965 54.7175 80.516 53.9456 81.2505C53.3293 81.8369 52.4856 82.2874 51.4446 82.6265L55.3118 87.3296L55.9846 88.147H52.7991L52.6487 87.9517L48.5706 82.6392L48.467 82.5054V81.1196L48.9094 81.0688C50.3273 80.906 51.3217 80.5826 51.9495 80.1431C52.5491 79.7231 52.8264 79.1926 52.8264 78.5132C52.8264 77.7771 52.5829 77.2947 52.1458 76.9751C51.6795 76.6343 50.9194 76.4244 49.7854 76.4243C48.3922 76.4243 47.0131 76.7419 45.6448 77.3853V88.147H43.3625V69.6851H45.6448Z" fill="white" stroke="white"/>
<path d="M41.4802 76.9092L40.8757 76.7793C39.7671 76.5417 38.703 76.4238 37.6833 76.4238C36.0277 76.4239 34.8781 76.8285 34.1404 77.5488C33.4049 78.2671 32.9939 79.3832 32.9939 80.9922C32.994 82.7751 33.4113 84.019 34.157 84.8174C34.8967 85.6093 36.0397 86.0478 37.6833 86.0479C38.7031 86.0479 39.7671 85.93 40.8757 85.6924L41.4802 85.5635V87.6787L41.0935 87.7676C39.9941 88.0213 38.8156 88.1465 37.5613 88.1465C35.3236 88.1464 33.5542 87.5708 32.3494 86.332C31.147 85.0957 30.5897 83.284 30.5896 80.9922C30.5896 78.8532 31.1524 77.1584 32.363 76.0049C33.5691 74.8558 35.333 74.3252 37.5613 74.3252C38.8156 74.3252 39.9941 74.4504 41.0935 74.7041L41.4802 74.7939V76.9092Z" fill="white" stroke="white"/>
<path d="M22.4197 74.2031C24.5031 74.2031 26.1543 74.7742 27.2761 75.999C28.3901 77.2155 28.9031 78.9921 28.9031 81.2363C28.903 83.4767 28.3904 85.2504 27.2761 86.4648C26.1543 87.6874 24.5028 88.2568 22.4197 88.2568C20.344 88.2568 18.6974 87.687 17.5759 86.4648C16.4622 85.2511 15.9447 83.4784 15.9363 81.2383V81.2363L15.9421 80.8203C16.0026 78.7718 16.5189 77.1394 17.5632 75.999C18.685 74.7742 20.3363 74.2031 22.4197 74.2031ZM22.4197 76.3018C20.9487 76.3018 19.9311 76.7205 19.2703 77.4775C18.5982 78.2475 18.2185 79.4543 18.2185 81.1875C18.2185 82.9549 18.599 84.1873 19.2732 84.9736C19.9349 85.7453 20.9515 86.1699 22.4197 86.1699C23.8879 86.1699 24.9045 85.7453 25.5662 84.9736C26.2404 84.1873 26.6208 82.955 26.6208 81.1875C26.6208 79.4543 26.2412 78.2475 25.5691 77.4775C24.9082 76.7205 23.8907 76.3018 22.4197 76.3018Z" fill="white" stroke="white"/>
<path d="M9.15796 69.6851C10.8002 69.6851 12.1255 70.047 13.0427 70.8579C13.9717 71.6792 14.3962 72.8832 14.3962 74.3735C14.3962 75.7154 13.9149 76.8754 12.9646 77.8257C12.1496 78.6406 11.0056 79.2847 9.56519 79.7798L15.0583 87.353L15.6335 88.147H12.6384L12.489 87.938L6.68823 79.8423L6.59448 79.7114V78.2524L7.02124 78.189C8.77214 77.9303 10.0181 77.4661 10.8162 76.8403C11.5904 76.2332 11.9675 75.4575 11.9675 74.4712C11.9675 73.5132 11.7026 72.8823 11.2546 72.481C10.7962 72.0703 10.0588 71.8208 8.95093 71.8208H3.73608V88.147H1.45386V69.6851H9.15796Z" fill="white" stroke="white"/>
<path fill-rule="evenodd" clip-rule="evenodd" d="M116.078 86.8775C114.686 87.3903 112.931 87.6468 110.815 87.6468C106.834 87.6468 104.844 85.4243 104.844 80.9795C104.844 76.8765 106.871 74.8251 110.925 74.8251C111.941 74.8251 112.971 74.9555 114.014 75.2164C114.274 75.2814 114.534 75.3545 114.796 75.4356V70.1848H116.078V86.8775ZM114.014 74.4122V69.4033H116.859V87.4224L116.348 87.6108C114.841 88.166 112.987 88.4283 110.815 88.4283C108.68 88.4283 106.943 87.8285 105.754 86.5013C104.58 85.1906 104.062 83.3024 104.062 80.9795C104.062 78.8099 104.598 77.0387 105.808 75.8144C107.019 74.5884 108.775 74.0436 110.925 74.0436C111.947 74.0436 112.977 74.1673 114.014 74.4122ZM114.014 77.2721C113.023 76.976 111.998 76.8277 110.937 76.8277C109.487 76.8277 108.542 77.1982 107.952 77.8037C107.358 78.4128 106.993 79.3936 106.993 80.894C106.993 82.6713 107.37 83.8586 107.99 84.5939C108.589 85.3037 109.52 85.7174 110.937 85.7174C111.998 85.7174 113.024 85.6122 114.014 85.403V77.2721ZM114.796 76.7056C113.558 76.266 112.272 76.0462 110.937 76.0462C107.786 76.0462 106.211 77.6621 106.211 80.894C106.211 84.6306 107.786 86.4989 110.937 86.4989C112.272 86.4989 113.558 86.3402 114.796 86.0227V76.7056Z" fill="white"/>
<path fill-rule="evenodd" clip-rule="evenodd" d="M102.194 69.4033V72.4317H99.1042V69.4033H102.194ZM102.072 74.0436V88.4283H99.2264V74.0436H102.072ZM101.412 70.1848H99.8858V71.6502H101.412V70.1848ZM101.29 74.8251H100.008V87.6468H101.29V74.8251Z" fill="white"/>
<path fill-rule="evenodd" clip-rule="evenodd" d="M96.3811 69.4033V88.4283H93.5359V69.4033H96.3811ZM95.5996 70.1848H94.3174V87.6468H95.5996V70.1848Z" fill="white"/>
<path fill-rule="evenodd" clip-rule="evenodd" d="M84.7928 86.6698C81.6586 86.6698 80.0915 84.8422 80.0915 81.187C80.0915 77.5969 81.6586 75.8019 84.7928 75.8019C87.927 75.8019 89.4941 77.5969 89.4941 81.187C89.4941 84.8422 87.927 86.6698 84.7928 86.6698ZM84.7928 74.7029C80.8038 74.7029 78.8093 76.8806 78.8093 81.2359C78.8256 85.583 80.8201 87.7566 84.7928 87.7566C88.7818 87.7566 90.7763 85.583 90.7763 81.2359C90.7763 76.8806 88.7818 74.7029 84.7928 74.7029ZM78.0278 81.2388L78.0278 81.2359C78.0278 78.9539 78.5489 77.0967 79.7289 75.8083C80.9208 74.5069 82.6593 73.9214 84.7928 73.9214C86.9263 73.9214 88.6648 74.5069 89.8567 75.8083C91.0367 77.0967 91.5578 78.9539 91.5578 81.2359C91.5578 83.514 91.0366 85.3685 89.8562 86.6548C88.6642 87.9539 86.9259 88.5381 84.7928 88.5381C82.6667 88.5381 80.9331 87.9532 79.7416 86.6548C78.5622 85.3695 78.0364 83.5165 78.0278 81.2388ZM81.8601 84.7904C82.4532 85.4821 83.3802 85.8883 84.7928 85.8883C86.2054 85.8883 87.1324 85.4821 87.7255 84.7904C88.3383 84.0757 88.7126 82.921 88.7126 81.187C88.7126 79.4884 88.3396 78.3603 87.73 77.6621C87.1382 76.9843 86.2097 76.5834 84.7928 76.5834C83.3759 76.5834 82.4474 76.9843 81.8556 77.6621C81.2461 78.3603 80.873 79.4884 80.873 81.187C80.873 82.921 81.2473 84.0757 81.8601 84.7904Z" fill="white"/>
<path fill-rule="evenodd" clip-rule="evenodd" d="M62.5197 87.6367V84.5857L63.563 84.9567C65.3001 85.5743 67.2291 85.8884 69.3579 85.8884C71.1092 85.8884 72.2798 85.553 72.9982 85.0089C73.6757 84.4959 74.0592 83.7142 74.0592 82.5181C74.0592 81.6554 73.813 81.1406 73.4411 80.8222C73.0459 80.4839 72.3703 80.2468 71.2751 80.2468H67.685C65.9592 80.2468 64.5189 79.8593 63.5073 78.9466C62.4804 78.0201 62.0312 76.6771 62.0312 75.0693C62.0312 73.1891 62.7176 71.6784 64.1501 70.6744C65.532 69.7059 67.5078 69.2812 69.9563 69.2812C71.9759 69.2812 73.9365 69.5338 75.8358 70.0403L76.416 70.195V73.0781L75.4023 72.7628C73.6472 72.2167 71.8328 71.9433 69.9563 71.9433C68.0646 71.9433 66.7826 72.263 65.9938 72.7889C65.2609 73.2775 64.8764 73.9945 64.8764 75.0693C64.8764 75.9806 65.1296 76.5285 65.5102 76.8651C65.909 77.2178 66.5868 77.4627 67.685 77.4627H71.2751C72.989 77.4627 74.4204 77.8383 75.4278 78.7265C76.454 79.6312 76.9044 80.9457 76.9044 82.5181C76.9044 84.4492 76.2723 86.0168 74.9108 87.0736C73.587 88.1011 71.6924 88.5504 69.3579 88.5504C67.0946 88.5504 65.0069 88.2999 63.0998 87.7914L62.5197 87.6367ZM74.8529 71.7917C73.2657 71.3717 71.6335 71.1618 69.9563 71.1618C66.0487 71.1618 64.0949 72.4643 64.0949 75.0693C64.0949 77.1859 65.2916 78.2442 67.685 78.2442H71.2751C74.507 78.2442 76.1229 79.6689 76.1229 82.5181C76.1229 86.0186 73.8679 87.7689 69.3579 87.7689C67.1518 87.7689 65.1329 87.5247 63.3012 87.0362V85.693C63.558 85.7843 63.8185 85.8692 64.0827 85.9478C65.7027 86.4292 67.4611 86.6699 69.3579 86.6699C73.0131 86.6699 74.8407 85.286 74.8407 82.5181C74.8407 80.4829 73.6522 79.4653 71.2751 79.4653H67.685C64.4368 79.4653 62.8128 78 62.8128 75.0693C62.8128 71.7316 65.1939 70.0628 69.9563 70.0628C71.9101 70.0628 73.8028 70.307 75.6345 70.7954V72.0165C75.3752 71.9359 75.1147 71.8609 74.8529 71.7917Z" fill="white"/>
<path fill-rule="evenodd" clip-rule="evenodd" d="M42.9087 88.4283V69.4033H45.7539V74.7579C47.0456 74.2802 48.4275 74.0436 49.8935 74.0436C51.4936 74.0436 52.8388 74.3662 53.7939 75.1441C54.7797 75.947 55.2175 77.124 55.2175 78.525C55.2175 79.6728 54.7957 80.6659 53.9673 81.4541C53.3933 82.0002 52.6442 82.4299 51.7491 82.7619L56.4078 88.4283H52.4877L48.0129 82.6003V80.8687L48.7053 80.7892C50.1035 80.6286 51.0436 80.3126 51.6157 79.9119C52.144 79.542 52.3723 79.0959 52.3723 78.5128C52.3723 77.8482 52.1583 77.4587 51.8073 77.2022C51.4107 76.9123 50.7209 76.7056 49.6126 76.7056C48.3185 76.7056 47.0341 76.9881 45.7539 77.565V88.4283H42.9087ZM44.9724 77.0719C46.4947 76.3067 48.0414 75.9241 49.6126 75.9241C51.9734 75.9241 53.1538 76.787 53.1538 78.5128C53.1538 80.2142 51.7007 81.2318 48.7945 81.5656V82.3349L52.873 87.6468H54.7535L50.4063 82.3593C50.6933 82.2863 50.9649 82.2065 51.2212 82.1199C53.3644 81.3957 54.436 80.1974 54.436 78.525C54.436 76.0584 52.9218 74.8251 49.8935 74.8251C48.4103 74.8251 47.0305 75.0819 45.7539 75.5955C45.4889 75.7021 45.2284 75.8198 44.9724 75.9485V70.1848H43.6902V87.6468H44.9724V77.0719Z" fill="white"/>
<path fill-rule="evenodd" clip-rule="evenodd" d="M37.3892 87.6467C38.6103 87.6467 39.75 87.5245 40.8083 87.2803V86.1813C40.5456 86.2376 40.2851 86.2874 40.0268 86.3307C39.1642 86.4753 38.3257 86.5477 37.5113 86.5477C34.0514 86.5477 32.3215 84.6956 32.3215 80.9916C32.3215 77.6132 34.0514 75.924 37.5113 75.924C38.3257 75.924 39.1642 75.9963 40.0268 76.1409C40.2851 76.1842 40.5456 76.234 40.8083 76.2903V75.1913C39.75 74.9471 38.6103 74.825 37.3892 74.825C33.0746 74.825 30.9173 76.8805 30.9173 80.9916C30.9173 85.4283 33.0746 87.6467 37.3892 87.6467ZM41.5898 87.902L40.984 88.0418C39.8615 88.3009 38.6622 88.4282 37.3892 88.4282C35.1058 88.4282 33.251 87.8399 31.975 86.5277C30.7029 85.2197 30.1357 83.325 30.1357 80.9916C30.1357 78.8057 30.7112 77.0252 31.9961 75.8008C33.274 74.5832 35.1206 74.0435 37.3892 74.0435C38.6622 74.0435 39.8615 74.1708 40.984 74.4298L41.5898 74.5696V77.257L40.6445 77.0545C39.5533 76.8206 38.5093 76.7055 37.5113 76.7055C35.8972 76.7055 34.8311 77.0996 34.165 77.75C33.5023 78.3971 33.103 79.4276 33.103 80.9916C33.103 82.7359 33.5114 83.8986 34.1901 84.6252C34.8594 85.3417 35.916 85.7661 37.5113 85.7661C38.5093 85.7661 39.5533 85.651 40.6445 85.4172L41.5898 85.2146V87.902Z" fill="white"/>
<path fill-rule="evenodd" clip-rule="evenodd" d="M22.2474 86.6698C19.1132 86.6698 17.5461 84.8422 17.5461 81.187C17.5461 77.5969 19.1132 75.8019 22.2474 75.8019C25.3816 75.8019 26.9487 77.5969 26.9487 81.187C26.9487 84.8422 25.3816 86.6698 22.2474 86.6698ZM22.2474 74.7029C18.2584 74.7029 16.2639 76.8806 16.2639 81.2359C16.2802 85.583 18.2747 87.7566 22.2474 87.7566C26.2364 87.7566 28.2309 85.583 28.2309 81.2359C28.2309 76.8806 26.2364 74.7029 22.2474 74.7029ZM15.4824 81.2388L15.4824 81.2359C15.4824 78.9539 16.0035 77.0967 17.1835 75.8083C18.3754 74.5069 20.1139 73.9214 22.2474 73.9214C24.3809 73.9214 26.1194 74.5069 27.3113 75.8083C28.4913 77.0967 29.0124 78.9539 29.0124 81.2359C29.0124 83.514 28.4912 85.3685 27.3108 86.6548C26.1188 87.9539 24.3805 88.5381 22.2474 88.5381C20.1213 88.5381 18.3876 87.9532 17.1962 86.6548C16.0168 85.3695 15.491 83.5165 15.4824 81.2388ZM19.3147 84.7904C19.9078 85.4821 20.8348 85.8883 22.2474 85.8883C23.66 85.8883 24.587 85.4821 25.1801 84.7904C25.7929 84.0757 26.1672 82.921 26.1672 81.187C26.1672 79.4884 25.7941 78.3603 25.1846 77.6621C24.5928 76.9843 23.6643 76.5834 22.2474 76.5834C20.8305 76.5834 19.902 76.9843 19.3102 77.6621C18.7007 78.3603 18.3276 79.4884 18.3276 81.187C18.3276 82.921 18.7019 84.0757 19.3147 84.7904Z" fill="white"/>
<path fill-rule="evenodd" clip-rule="evenodd" d="M1 88.4283V69.4033H8.98608C10.6638 69.4033 12.068 69.772 13.0571 70.6464C14.0646 71.5371 14.5055 72.8299 14.5055 74.3733C14.5055 75.79 13.9944 77.0214 12.9914 78.0244C12.2076 78.8082 11.1451 79.432 9.84213 79.919L16.0133 88.4283H12.3212L6.14089 79.8018V78.0092L6.80819 77.9107C8.53654 77.6553 9.72659 77.2015 10.4699 76.6187C11.1761 76.065 11.5138 75.371 11.5138 74.4709C11.5138 73.5648 11.2649 73.0219 10.8946 72.6902C10.508 72.3439 9.85021 72.102 8.77849 72.102H3.84519V88.4283H1ZM3.06368 71.3205H8.77849C11.123 71.3205 12.2953 72.3706 12.2953 74.4709C12.2953 76.7504 10.5043 78.1546 6.9224 78.6838V79.5508L12.7227 87.6468H14.4811L8.58311 79.5141C8.85449 79.4342 9.11512 79.3499 9.36501 79.2611C12.271 78.2289 13.724 76.5996 13.724 74.3733C13.724 71.581 12.1447 70.1848 8.98608 70.1848H1.78151V87.6468H3.06368V71.3205Z" fill="white"/>
<path d="M52.9508 26.0453C53.2222 25.7096 53.7142 25.6575 54.0499 25.9288L55.5131 27.1117C55.8487 27.383 55.9009 27.8751 55.6295 28.2107L44.8205 41.5814C44.5492 41.9171 44.0571 41.9692 43.7215 41.6978L42.2583 40.515C41.9226 40.2437 41.8705 39.7516 42.1418 39.4159L52.9508 26.0453Z" fill="white"/>
<path d="M20.0466 55.5835H98.1979V57.928C98.1979 58.3597 97.848 58.7095 97.4164 58.7095H20.8281C20.3965 58.7095 20.0466 58.3597 20.0466 57.928V55.5835Z" fill="white"/>
<path d="M20.0466 39.1719H23.1727V57.9282C23.1727 58.3598 22.8228 58.7097 22.3912 58.7097H20.8281C20.3965 58.7097 20.0466 58.3598 20.0466 57.9282V39.1719Z" fill="white"/>
<path d="M59.0505 0L61.2498 2.19309L22.9053 40.6448C22.5153 41.0359 21.8821 41.0368 21.4911 40.6468L20.0829 39.2426C20.0371 39.1969 20.037 39.1226 20.0827 39.0768L59.0505 0Z" fill="white"/>
<path d="M56.9341 2.12988L59.056 0.000963598L98.1519 38.9678C98.2253 39.041 98.2255 39.1597 98.1524 39.2331L96.8688 40.5209C96.4789 40.9121 95.8458 40.9131 95.4546 40.5232L56.9341 2.12988Z" fill="white"/>
<path d="M41.929 39.9534C41.929 39.5218 42.2789 39.1719 42.7105 39.1719H44.2735C44.7051 39.1719 45.055 39.5218 45.055 39.9534V56.1467C45.055 56.699 44.6073 57.1467 44.055 57.1467H42.929C42.3767 57.1467 41.929 56.6989 41.929 56.1467V39.9534Z" fill="white"/>
<path d="M66.9159 26.5291C66.6445 26.1935 66.1525 26.1414 65.8168 26.4127L64.3536 27.5955C64.018 27.8669 63.9658 28.359 64.2372 28.6946L75.0462 42.0653C75.3175 42.4009 75.8096 42.4531 76.1452 42.1817L77.6084 40.9989C77.9441 40.7275 77.9962 40.2355 77.7249 39.8998L66.9159 26.5291Z" fill="white"/>
<path d="M77.9006 40.3909C77.9006 39.9593 77.5507 39.6094 77.1191 39.6094H75.5561C75.1245 39.6094 74.7746 39.9593 74.7746 40.3909V56.5842C74.7746 57.1365 75.2223 57.5842 75.7746 57.5842H76.9006C77.4529 57.5842 77.9006 57.1364 77.9006 56.5842V40.3909Z" fill="white"/>
<path d="M63.8113 45.7659C63.8113 45.3343 64.1612 44.9844 64.5928 44.9844H66.1558C66.5874 44.9844 66.9373 45.3343 66.9373 45.7659V55.9256C66.9373 56.3572 66.5874 56.7071 66.1558 56.7071H64.5928C64.1612 56.7071 63.8113 56.3572 63.8113 55.9256V45.7659Z" fill="white"/>
<path d="M52.8701 45.7659C52.8701 45.3343 53.22 44.9844 53.6516 44.9844H55.2147C55.6463 44.9844 55.9962 45.3343 55.9962 45.7659V55.9256C55.9962 56.3572 55.6463 56.7071 55.2147 56.7071H53.6516C53.22 56.7071 52.8701 56.3572 52.8701 55.9256V45.7659Z" fill="white"/>
<path d="M95.0718 39.1719H98.1978V57.9282C98.1978 58.3598 97.8479 58.7097 97.4163 58.7097H95.8533C95.4217 58.7097 95.0718 58.3598 95.0718 57.9282V39.1719Z" fill="white"/>
</svg>
